<?xml version="1.0" standalone="no"?>
<!DOCTYPE svg PUBLIC "-//W3C//DTD SVG 20010904//EN"
 "http://www.w3.org/TR/2001/REC-SVG-20010904/DTD/svg10.dtd">
<svg version="1.0" xmlns="http://www.w3.org/2000/svg"
 width="256.000000pt" height="182.000000pt" viewBox="0 0 256.000000 182.000000"
 preserveAspectRatio="xMidYMid meet">

<g transform="translate(0.000000,182.000000) scale(0.100000,-0.100000)"
fill="#000000" stroke="none">
<path d="M1326 1759 c-39 -131 -43 -315 -10 -488 7 -41 13 -75 11 -76 -1 -1
-22 -7 -47 -14 -237 -64 -566 -248 -752 -420 l-71 -65 -24 29 c-34 43 -99 181
-113 244 -28 121 12 256 98 331 61 54 120 71 228 68 l89 -3 5 -30 c7 -40 57
-64 147 -72 70 -6 178 10 189 28 10 17 -70 85 -138 118 -86 42 -140 49 -165
24 -17 -17 -33 -20 -124 -19 -140 1 -194 -18 -269 -93 -78 -78 -102 -134 -108
-246 -4 -78 -1 -101 22 -169 23 -67 73 -164 118 -227 9 -13 -5 -35 -81 -125
-146 -173 -292 -392 -316 -471 l-6 -23 139 0 140 0 3 77 c5 96 38 171 107 239
41 41 148 104 177 104 6 0 46 -32 90 -70 44 -39 121 -102 172 -140 l91 -70
106 0 c104 0 106 0 106 23 0 13 -12 34 -26 48 -21 20 -36 24 -85 24 -56 0 -61
3 -79 31 -19 29 -55 152 -48 159 2 2 49 -2 104 -10 325 -46 652 -158 1087
-376 l179 -89 139 0 139 0 -6 27 c-19 81 -93 137 -196 149 l-57 6 -186 200
-187 199 29 21 c51 38 188 182 218 230 l30 48 83 0 c75 0 82 2 82 20 0 18 -7
20 -70 20 -68 0 -70 1 -60 20 9 17 21 20 70 20 47 0 60 3 60 15 0 11 -12 15
-50 15 -27 0 -50 2 -50 5 0 3 7 22 16 43 8 20 27 78 41 127 42 151 43 474 2
603 l-11 32 -51 -27 c-57 -31 -187 -152 -187 -174 0 -12 -35 -14 -197 -14
-109 0 -216 -3 -239 -7 -39 -7 -41 -6 -56 25 -25 52 -64 93 -137 141 -99 66
-97 66 -115 5z m119 -199 c22 -22 46 -42 55 -45 10 -3 46 1 81 9 35 8 96 18
134 21 l71 7 29 -71 c16 -40 32 -74 36 -77 5 -3 19 29 31 71 27 88 20 85 181
59 l98 -17 31 29 c32 31 87 135 89 169 0 14 4 11 10 -10 12 -38 16 -367 6
-422 -7 -33 -14 -44 -39 -54 l-31 -13 27 -9 c18 -6 25 -14 22 -24 -4 -8 -9
-26 -12 -39 -4 -15 -16 -27 -32 -31 -23 -6 -24 -7 -7 -19 16 -12 17 -17 4 -51
-14 -37 -16 -38 -72 -41 -42 -2 -57 -7 -57 -17 0 -11 12 -15 45 -15 48 0 48 0
39 -24 -4 -11 -19 -16 -45 -16 -32 0 -39 -3 -39 -20 0 -13 7 -20 20 -20 11 0
20 -4 20 -8 0 -19 -115 -145 -177 -194 -122 -97 -114 -95 -186 -52 -62 38
-224 190 -246 232 -11 20 -9 22 14 22 18 0 25 5 25 20 0 17 -7 20 -40 20 -29
0 -42 5 -50 20 -10 19 -8 20 40 20 38 0 50 4 50 15 0 12 -13 15 -59 15 l-59 0
-22 55 c-13 31 -21 57 -19 58 2 2 15 8 28 13 25 10 25 11 -14 30 -26 13 -41
28 -46 47 -7 26 -6 27 29 28 75 1 77 12 8 46 l-64 32 -7 77 c-8 81 -1 283 11
322 5 19 10 12 29 -43 14 -44 35 -79 60 -105z m-84 -465 c33 -88 34 -83 -8
-87 -27 -2 -39 -8 -41 -20 -3 -15 5 -18 52 -18 31 0 56 -2 56 -4 0 -2 3 -11 6
-20 5 -14 -3 -16 -55 -16 -54 0 -61 -2 -61 -20 0 -18 7 -20 74 -20 l74 0 65
-83 c71 -89 136 -149 242 -223 67 -47 69 -47 96 -32 26 15 28 15 49 -7 l22
-23 -26 -41 c-14 -22 -26 -43 -26 -46 0 -2 20 5 45 17 l45 22 36 -35 36 -36
-52 -33 c-28 -18 -49 -34 -46 -37 2 -2 32 3 67 13 l64 16 100 -106 c90 -95
104 -106 135 -106 60 0 111 -20 154 -61 l41 -38 -107 -1 -107 0 -188 94 c-429
215 -790 338 -1105 378 l-97 12 6 50 c3 28 11 77 18 108 12 58 8 68 -25 68
-13 0 -31 -72 -39 -150 l-6 -65 -125 -5 -125 -6 -58 58 c-31 32 -57 62 -57 67
0 10 154 143 180 155 13 6 30 0 64 -23 51 -35 53 -33 31 29 -8 23 -15 46 -15
50 0 5 22 22 48 38 l49 30 74 -39 c40 -21 75 -39 77 -39 2 0 -13 28 -32 63
l-36 63 33 16 32 15 102 -69 c57 -37 103 -64 103 -59 0 5 -13 46 -30 91 -16
45 -30 87 -30 94 0 12 175 77 194 73 4 -2 17 -25 27 -52z m-822 -578 c-2 -1
-34 -17 -71 -35 -121 -61 -214 -192 -225 -322 l-6 -60 -84 0 -85 0 32 58 c61
109 220 321 312 418 l40 41 45 -48 c25 -27 44 -50 42 -52z"/>
<path d="M1624 1421 c-41 -25 -79 -77 -63 -87 7 -4 20 4 32 20 20 28 66 56 91
56 31 0 46 -30 46 -95 0 -93 -1 -95 -76 -95 -50 0 -64 -3 -64 -15 0 -12 13
-15 60 -15 69 0 70 -2 35 -78 -14 -30 -25 -57 -25 -61 0 -3 36 -28 80 -56 l79
-49 -44 -29 c-25 -16 -45 -33 -45 -38 0 -20 20 -16 67 16 l50 34 52 -35 c46
-31 71 -37 71 -15 0 4 -18 17 -40 30 -22 12 -42 26 -45 31 -3 5 27 30 67 56
40 26 74 48 76 49 2 2 -4 17 -12 34 -9 16 -16 48 -16 71 l0 40 70 0 c55 0 70
3 70 15 0 11 -16 15 -67 17 l-66 3 29 34 c30 36 78 61 119 61 16 0 25 6 25 15
0 22 -55 19 -107 -6 -29 -14 -52 -35 -69 -65 l-26 -44 -111 0 -112 0 0 91 c0
83 -2 92 -24 110 -30 24 -67 24 -107 0z m346 -272 c0 -22 5 -49 10 -60 10 -18
6 -19 -133 -19 l-144 0 21 60 21 60 112 0 113 0 0 -41z m-40 -129 c-14 -11
-39 -27 -56 -36 -31 -17 -32 -17 -90 19 l-58 37 114 0 115 0 -25 -20z"/>
</g>
</svg>
